name Run_200 02_newCOP3_v24.mot																		
datacolumns 19																		
datarows 67																		
range 2.82 2.886																		
endheader																		
                time	   ground_force_vx	   ground_force_vy	 ground_force_vz	   ground_force_px	   ground_force_py	   ground_force_pz	   l_ground_force_vx	  l_ground_force_vy	   l_ground_force_vz	   l_ground_force_px	   l_ground_force_py	   l_ground_force_pz	   ground_torque_x	   ground_torque_y	  ground_torque_z	   l_ground_torque_x	  l_ground_torque_y	 l_ground_torque_z
2.82	44.442486	177.347824	10.152188	0.788697	0	-0.328109	0	0	0	0	0	0	0	-0.361762	0	0	0	0
2.821	43.750107	172.140259	9.993505	0.787658	0	-0.32791	0	0	0	0	0	0	0	-0.323596	0	0	0	0
2.822	43.053436	167.031021	9.831704	0.786655	0	-0.327708	0	0	0	0	0	0	0	-0.2847	0	0	0	0
2.823	42.351032	162.021439	9.667414	0.78569	0	-0.327501	0	0	0	0	0	0	0	-0.245039	0	0	0	0
2.824	41.64156	157.112686	9.501265	0.784765	0	-0.327288	0	0	0	0	0	0	0	-0.204581	0	0	0	0
2.825	40.923805	152.305893	9.333872	0.783881	0	-0.327067	0	0	0	0	0	0	0	-0.163298	0	0	0	0
2.826	40.196705	147.601974	9.165829	0.783039	0	-0.326838	0	0	0	0	0	0	0	-0.121166	0	0	0	0
2.827	39.45937	143.001648	8.997692	0.782241	0	-0.326599	0	0	0	0	0	0	0	-0.078165	0	0	0	0
2.828	38.711098	138.505463	8.829975	0.781488	0	-0.326349	0	0	0	0	0	0	0	-0.034279	0	0	0	0
2.829	37.951389	134.113678	8.663137	0.780779	0	-0.326086	0	0	0	0	0	0	0	0.010503	0	0	0	0
2.83	37.17997	129.82634	8.497581	0.780114	0	-0.325809	0	0	0	0	0	0	0	0.056189	0	0	0	0
2.831	36.396782	125.643242	8.333643	0.779494	0	-0.325517	0	0	0	0	0	0	0	0.102779	0	0	0	0
2.832	35.60199	121.563896	8.171594	0.778918	0	-0.325209	0	0	0	0	0	0	0	0.150272	0	0	0	0
2.833	34.795959	117.587547	8.011631	0.778386	0	-0.324885	0	0	0	0	0	0	0	0.198659	0	0	0	0
2.834	33.979248	113.713181	7.853886	0.777896	0	-0.324542	0	0	0	0	0	0	0	0.247928	0	0	0	0
2.835	33.152565	109.939484	7.698418	0.777448	0	-0.324182	0	0	0	0	0	0	0	0.298058	0	0	0	0
2.836	32.31675	106.264915	7.545219	0.777041	0	-0.323802	0	0	0	0	0	0	0	0.349027	0	0	0	0
2.837	31.472725	102.687637	7.394222	0.776674	0	-0.323404	0	0	0	0	0	0	0	0.400803	0	0	0	0
2.838	30.621471	99.205589	7.245297	0.776347	0	-0.322986	0	0	0	0	0	0	0	0.453351	0	0	0	0
2.839	29.763973	95.816475	7.098267	0.776059	0	-0.322549	0	0	0	0	0	0	0	0.506629	0	0	0	0
2.84	28.901194	92.517815	6.952906	0.775809	0	-0.322093	0	0	0	0	0	0	0	0.560589	0	0	0	0
2.841	28.034046	89.306946	6.808953	0.775597	0	-0.321618	0	0	0	0	0	0	0	0.615175	0	0	0	0
2.842	27.163372	86.181107	6.666117	0.775424	0	-0.321124	0	0	0	0	0	0	0	0.670328	0	0	0	0
2.843	26.289927	83.137428	6.524086	0.775288	0	-0.320612	0	0	0	0	0	0	0	0.725979	0	0	0	0
2.844	25.414381	80.173035	6.382537	0.775191	0	-0.320081	0	0	0	0	0	0	0	0.782056	0	0	0	0
2.845	24.537329	77.285034	6.241142	0.775132	0	-0.319533	0	0	0	0	0	0	0	0.838478	0	0	0	0
2.846	23.6593	74.470612	6.099579	0.775114	0	-0.318968	0	0	0	0	0	0	0	0.895157	0	0	0	0
2.847	22.780798	71.72702	5.957538	0.775137	0	-0.318386	0	0	0	0	0	0	0	0.952001	0	0	0	0
2.848	21.902319	69.051682	5.814728	0.775202	0	-0.317788	0	0	0	0	0	0	0	1.008909	0	0	0	0
2.849	21.024395	66.442131	5.670887	0.775312	0	-0.317174	0	0	0	0	0	0	0	1.065774	0	0	0	0
2.85	20.147627	63.896141	5.525784	0.775468	0	-0.316544	0	0	0	0	0	0	0	1.122484	0	0	0	0
2.851	19.27272	61.411644	5.379225	0.775675	0	-0.315898	0	0	0	0	0	0	0	1.178919	0	0	0	0
2.852	18.400511	58.986801	5.231061	0.775934	0	-0.315238	0	0	0	0	0	0	0	1.234954	0	0	0	0
2.853	17.532	56.619991	5.081187	0.77625	0	-0.314562	0	0	0	0	0	0	0	1.290456	0	0	0	0
2.854	16.668358	54.309803	4.929546	0.776627	0	-0.313872	0	0	0	0	0	0	0	1.345287	0	0	0	0
2.855	15.810939	52.055027	4.77613	0.77707	0	-0.313167	0	0	0	0	0	0	0	1.399306	0	0	0	0
2.856	14.961276	49.854652	4.620982	0.777584	0	-0.312447	0	0	0	0	0	0	0	1.452362	0	0	0	0
2.857	14.12107	47.707851	4.464195	0.778176	0	-0.311713	0	0	0	0	0	0	0	1.504303	0	0	0	0
2.858	13.292166	45.613953	4.305913	0.77885	0	-0.310963	0	0	0	0	0	0	0	1.554969	0	0	0	0
2.859	12.476526	43.57243	4.146324	0.779615	0	-0.310199	0	0	0	0	0	0	0	1.604198	0	0	0	0
2.86	11.676193	41.582886	3.985665	0.780476	0	-0.309418	0	0	0	0	0	0	0	1.651824	0	0	0	0
2.861	10.89325	39.645023	3.824214	0.781442	0	-0.308622	0	0	0	0	0	0	0	1.697675	0	0	0	0
2.862	10.129771	37.758625	3.66229	0.782518	0	-0.307809	0	0	0	0	0	0	0	1.741578	0	0	0	0
2.863	9.387782	35.923542	3.500246	0.783711	0	-0.306978	0	0	0	0	0	0	0	1.783358	0	0	0	0
2.864	8.669211	34.139675	3.338468	0.785027	0	-0.306129	0	0	0	0	0	0	0	1.822835	0	0	0	0
2.865	7.975845	32.40696	3.177371	0.786471	0	-0.30526	0	0	0	0	0	0	0	1.859833	0	0	0	0
2.866	7.309293	30.725363	3.017391	0.788048	0	-0.304371	0	0	0	0	0	0	0	1.894169	0	0	0	0
2.867	6.670952	29.094868	2.858987	0.789761	0	-0.303461	0	0	0	0	0	0	0	1.925664	0	0	0	0
2.868	0	0	0	0	0	0	0	0	0	0	0	0	0	0	0	0	0	0
2.869	0	0	0	0	0	0	0	0	0	0	0	0	0	0	0	0	0	0
2.87	0	0	0	0	0	0	0	0	0	0	0	0	0	0	0	0	0	0
2.871	0	0	0	0	0	0	0	0	0	0	0	0	0	0	0	0	0	0
2.872	0	0	0	0	0	0	0	0	0	0	0	0	0	0	0	0	0	0
2.873	0	0	0	0	0	0	0	0	0	0	0	0	0	0	0	0	0	0
2.874	0	0	0	0	0	0	0	0	0	0	0	0	0	0	0	0	0	0
2.875	0	0	0	0	0	0	0	0	0	0	0	0	0	0	0	0	0	0
2.876	0	0	0	0	0	0	0	0	0	0	0	0	0	0	0	0	0	0
2.877	0	0	0	0	0	0	0	0	0	0	0	0	0	0	0	0	0	0
2.878	0	0	0	0	0	0	0	0	0	0	0	0	0	0	0	0	0	0
2.879	0	0	0	0	0	0	0	0	0	0	0	0	0	0	0	0	0	0
2.88	0	0	0	0	0	0	0	0	0	0	0	0	0	0	0	0	0	0
2.881	0	0	0	0	0	0	0	0	0	0	0	0	0	0	0	0	0	0
2.882	0	0	0	0	0	0	0	0	0	0	0	0	0	0	0	0	0	0
2.883	0	0	0	0	0	0	0	0	0	0	0	0	0	0	0	0	0	0
2.884	0	0	0	0	0	0	0	0	0	0	0	0	0	0	0	0	0	0
2.885	0	0	0	0	0	0	0	0	0	0	0	0	0	0	0	0	0	0
2.886	0	0	0	0	0	0	0	0	0	0	0	0	0	0	0	0	0	0
